<mxfile host="app.diagrams.net" agent="Mozilla/5.0 (Windows NT 10.0; Win64; x64) AppleWebKit/537.36 (KHTML, like Gecko) Chrome/131.0.0.0 Safari/537.36" version="26.0.6">
  <diagram id="C5RBs43oDa-KdzZeNtuy" name="Page-1">
    <mxGraphModel dx="1126" dy="601" grid="1" gridSize="10" guides="1" tooltips="1" connect="1" arrows="1" fold="1" page="1" pageScale="1" pageWidth="827" pageHeight="1169" math="0" shadow="0">
      <root>
        <mxCell id="WIyWlLk6GJQsqaUBKTNV-0" />
        <mxCell id="WIyWlLk6GJQsqaUBKTNV-1" parent="WIyWlLk6GJQsqaUBKTNV-0" />
        <mxCell id="FqdX8kXsjLSV0rmx-Y8m-2" style="edgeStyle=orthogonalEdgeStyle;rounded=0;orthogonalLoop=1;jettySize=auto;html=1;" edge="1" parent="WIyWlLk6GJQsqaUBKTNV-1" source="WIyWlLk6GJQsqaUBKTNV-3" target="FqdX8kXsjLSV0rmx-Y8m-0">
          <mxGeometry relative="1" as="geometry" />
        </mxCell>
        <mxCell id="WIyWlLk6GJQsqaUBKTNV-3" value="計算使用者疲勞程度" style="rounded=1;whiteSpace=wrap;html=1;fontSize=12;glass=0;strokeWidth=1;shadow=0;" parent="WIyWlLk6GJQsqaUBKTNV-1" vertex="1">
          <mxGeometry x="260" y="90" width="120" height="40" as="geometry" />
        </mxCell>
        <mxCell id="FqdX8kXsjLSV0rmx-Y8m-1" style="edgeStyle=orthogonalEdgeStyle;rounded=0;orthogonalLoop=1;jettySize=auto;html=1;entryX=0.496;entryY=0.096;entryDx=0;entryDy=0;entryPerimeter=0;" edge="1" parent="WIyWlLk6GJQsqaUBKTNV-1" source="FqdX8kXsjLSV0rmx-Y8m-0" target="FqdX8kXsjLSV0rmx-Y8m-3">
          <mxGeometry relative="1" as="geometry">
            <mxPoint x="320" y="250" as="targetPoint" />
          </mxGeometry>
        </mxCell>
        <mxCell id="FqdX8kXsjLSV0rmx-Y8m-0" value="計算&lt;span style=&quot;background-color: transparent; color: light-dark(rgb(0, 0, 0), rgb(255, 255, 255));&quot;&gt;事件疲勞程度&lt;/span&gt;" style="rounded=1;whiteSpace=wrap;html=1;" vertex="1" parent="WIyWlLk6GJQsqaUBKTNV-1">
          <mxGeometry x="260" y="170" width="120" height="40" as="geometry" />
        </mxCell>
        <mxCell id="FqdX8kXsjLSV0rmx-Y8m-3" value="計算做完事件後的疲勞程度" style="rounded=1;whiteSpace=wrap;html=1;" vertex="1" parent="WIyWlLk6GJQsqaUBKTNV-1">
          <mxGeometry x="260" y="250" width="120" height="40" as="geometry" />
        </mxCell>
        <mxCell id="FqdX8kXsjLSV0rmx-Y8m-7" value="若是使用者有不同的排成喜好&lt;br&gt;，目前先依照預設排程" style="text;html=1;align=center;verticalAlign=middle;resizable=0;points=[];autosize=1;strokeColor=none;fillColor=none;" vertex="1" parent="WIyWlLk6GJQsqaUBKTNV-1">
          <mxGeometry y="23" width="180" height="40" as="geometry" />
        </mxCell>
        <mxCell id="FqdX8kXsjLSV0rmx-Y8m-8" value="選擇下一個排程" style="strokeWidth=2;html=1;shape=mxgraph.flowchart.decision;whiteSpace=wrap;" vertex="1" parent="WIyWlLk6GJQsqaUBKTNV-1">
          <mxGeometry x="271" y="330" width="100" height="100" as="geometry" />
        </mxCell>
        <mxCell id="FqdX8kXsjLSV0rmx-Y8m-10" value="" style="strokeWidth=2;html=1;shape=mxgraph.flowchart.annotation_2;align=left;labelPosition=right;pointerEvents=1;rotation=90;" vertex="1" parent="WIyWlLk6GJQsqaUBKTNV-1">
          <mxGeometry x="298.5" y="400" width="45" height="100" as="geometry" />
        </mxCell>
        <mxCell id="FqdX8kXsjLSV0rmx-Y8m-14" style="edgeStyle=orthogonalEdgeStyle;rounded=0;orthogonalLoop=1;jettySize=auto;html=1;entryX=0.484;entryY=0.061;entryDx=0;entryDy=0;entryPerimeter=0;" edge="1" parent="WIyWlLk6GJQsqaUBKTNV-1" source="FqdX8kXsjLSV0rmx-Y8m-3" target="FqdX8kXsjLSV0rmx-Y8m-8">
          <mxGeometry relative="1" as="geometry" />
        </mxCell>
        <mxCell id="FqdX8kXsjLSV0rmx-Y8m-15" value="搶佔" style="rounded=1;whiteSpace=wrap;html=1;" vertex="1" parent="WIyWlLk6GJQsqaUBKTNV-1">
          <mxGeometry x="228.5" y="470" width="70" height="40" as="geometry" />
        </mxCell>
        <mxCell id="FqdX8kXsjLSV0rmx-Y8m-16" value="非搶佔" style="rounded=1;whiteSpace=wrap;html=1;" vertex="1" parent="WIyWlLk6GJQsqaUBKTNV-1">
          <mxGeometry x="340" y="470" width="70" height="40" as="geometry" />
        </mxCell>
        <mxCell id="FqdX8kXsjLSV0rmx-Y8m-18" value="任務完成時間 (TCT) 權重：{TCT_weight}&#xa;資源利用率 (RUR) 權重：{RUR_weight}&#xa;任務成功率 (TSR) 權重：{TSR_weight}&#xa;任務切換頻率 (TSF) 權重：{TSF_weight}&#xa;延遲率 (DR) 權重：{DR_weight}&#xa;使用者滿意度 (US) 權重：{US_weight}" style="text;whiteSpace=wrap;html=1;" vertex="1" parent="WIyWlLk6GJQsqaUBKTNV-1">
          <mxGeometry x="500" y="110" width="240" height="100" as="geometry" />
        </mxCell>
      </root>
    </mxGraphModel>
  </diagram>
</mxfile>
